<!-- This ruler was genrated by Ruler Generator by Robb Godshaw, www.robb.cc --><svg x="0" y="0" width="1671" height="641.79999" version="1.1" xmlns="http://www.w3.org/2000/svg" xmlns:xlink="http://www.w3.org/1999/xlink"><g fill="none" stroke="none" stroke-width="1" stroke-linecap="butt" stroke-linejoin="miter" stroke-miterlimit="10" stroke-dasharray="" stroke-dashoffset="0" font-family="sans-serif" font-weight="normal" font-size="12" text-anchor="start" mix-blend-mode="normal"/><g id="1 &quot;in. Tick Group" fill="none" stroke="none" stroke-width="none" stroke-linecap="butt" stroke-linejoin="miter" stroke-miterlimit="10" stroke-dasharray="" stroke-dashoffset="0" font-family="none" font-weight="none" font-size="none" text-anchor="none" mix-blend-mode="normal"><line x1="0" y1="0" x2="0" y2="108" id="1 &quot;in. Tick no. 0" stroke="#000000" stroke-width="1" font-family="sans-serif" font-weight="normal" font-size="12" text-anchor="start"/><text x="4" y="109" id="1 &quot;in. label no. 0" fill="#000000" stroke-width="1" font-family="monospace" font-weight="bold" font-size="18" text-anchor="start">0</text><line x1="72" y1="0" x2="72" y2="108" id="1 &quot;in. Tick no. 1" stroke="#000000" stroke-width="1" font-family="sans-serif" font-weight="normal" font-size="12" text-anchor="start"/><text x="76" y="109" id="1 &quot;in. label no. 1" fill="#000000" stroke-width="1" font-family="monospace" font-weight="bold" font-size="18" text-anchor="start">1</text><line x1="144" y1="0" x2="144" y2="108" id="1 &quot;in. Tick no. 2" stroke="#000000" stroke-width="1" font-family="sans-serif" font-weight="normal" font-size="12" text-anchor="start"/><text x="148" y="109" id="1 &quot;in. label no. 2" fill="#000000" stroke-width="1" font-family="monospace" font-weight="bold" font-size="18" text-anchor="start">2</text><line x1="216" y1="0" x2="216" y2="108" id="1 &quot;in. Tick no. 3" stroke="#000000" stroke-width="1" font-family="sans-serif" font-weight="normal" font-size="12" text-anchor="start"/><text x="220" y="109" id="1 &quot;in. label no. 3" fill="#000000" stroke-width="1" font-family="monospace" font-weight="bold" font-size="18" text-anchor="start">3</text><line x1="288" y1="0" x2="288" y2="108" id="1 &quot;in. Tick no. 4" stroke="#000000" stroke-width="1" font-family="sans-serif" font-weight="normal" font-size="12" text-anchor="start"/><text x="292" y="109" id="1 &quot;in. label no. 4" fill="#000000" stroke-width="1" font-family="monospace" font-weight="bold" font-size="18" text-anchor="start">4</text><line x1="360" y1="0" x2="360" y2="108" id="1 &quot;in. Tick no. 5" stroke="#000000" stroke-width="1" font-family="sans-serif" font-weight="normal" font-size="12" text-anchor="start"/><text x="364" y="109" id="1 &quot;in. label no. 5" fill="#000000" stroke-width="1" font-family="monospace" font-weight="bold" font-size="18" text-anchor="start">5</text><line x1="432" y1="0" x2="432" y2="108" id="1 &quot;in. Tick no. 6" stroke="#000000" stroke-width="1" font-family="sans-serif" font-weight="normal" font-size="12" text-anchor="start"/><text x="436" y="109" id="1 &quot;in. label no. 6" fill="#000000" stroke-width="1" font-family="monospace" font-weight="bold" font-size="18" text-anchor="start">6</text><line x1="504" y1="0" x2="504" y2="108" id="1 &quot;in. Tick no. 7" stroke="#000000" stroke-width="1" font-family="sans-serif" font-weight="normal" font-size="12" text-anchor="start"/><text x="508" y="109" id="1 &quot;in. label no. 7" fill="#000000" stroke-width="1" font-family="monospace" font-weight="bold" font-size="18" text-anchor="start">7</text><line x1="576" y1="0" x2="576" y2="108" id="1 &quot;in. Tick no. 8" stroke="#000000" stroke-width="1" font-family="sans-serif" font-weight="normal" font-size="12" text-anchor="start"/><text x="580" y="109" id="1 &quot;in. label no. 8" fill="#000000" stroke-width="1" font-family="monospace" font-weight="bold" font-size="18" text-anchor="start">8</text><line x1="648" y1="0" x2="648" y2="108" id="1 &quot;in. Tick no. 9" stroke="#000000" stroke-width="1" font-family="sans-serif" font-weight="normal" font-size="12" text-anchor="start"/><text x="652" y="109" id="1 &quot;in. label no. 9" fill="#000000" stroke-width="1" font-family="monospace" font-weight="bold" font-size="18" text-anchor="start">9</text><line x1="720" y1="0" x2="720" y2="108" id="1 &quot;in. Tick no. 10" stroke="#000000" stroke-width="1" font-family="sans-serif" font-weight="normal" font-size="12" text-anchor="start"/><text x="724" y="109" id="1 &quot;in. label no. 10" fill="#000000" stroke-width="1" font-family="monospace" font-weight="bold" font-size="18" text-anchor="start">10</text><line x1="792" y1="0" x2="792" y2="108" id="1 &quot;in. Tick no. 11" stroke="#000000" stroke-width="1" font-family="sans-serif" font-weight="normal" font-size="12" text-anchor="start"/><text x="796" y="109" id="1 &quot;in. label no. 11" fill="#000000" stroke-width="1" font-family="monospace" font-weight="bold" font-size="18" text-anchor="start">11</text><line x1="864" y1="0" x2="864" y2="108" id="1 &quot;in. Tick no. 12" stroke="#000000" stroke-width="1" font-family="sans-serif" font-weight="normal" font-size="12" text-anchor="start"/><text x="860" y="109" id="1 &quot;in. label no. 12" fill="#000000" stroke-width="1" font-family="monospace" font-weight="bold" font-size="18" text-anchor="end">12</text></g><g id="1/2 &quot;in. Tick Group" fill="none" stroke="#000000" stroke-width="1" stroke-linecap="butt" stroke-linejoin="miter" stroke-miterlimit="10" stroke-dasharray="" stroke-dashoffset="0" font-family="sans-serif" font-weight="normal" font-size="12" text-anchor="start" mix-blend-mode="normal"><line x1="36" y1="0" x2="36" y2="54" id="1/2 &quot;in. Tick no. 1"/><line x1="108" y1="0" x2="108" y2="54" id="1/2 &quot;in. Tick no. 3"/><line x1="180" y1="0" x2="180" y2="54" id="1/2 &quot;in. Tick no. 5"/><line x1="252" y1="0" x2="252" y2="54" id="1/2 &quot;in. Tick no. 7"/><line x1="324" y1="0" x2="324" y2="54" id="1/2 &quot;in. Tick no. 9"/><line x1="396" y1="0" x2="396" y2="54" id="1/2 &quot;in. Tick no. 11"/><line x1="468" y1="0" x2="468" y2="54" id="1/2 &quot;in. Tick no. 13"/><line x1="540" y1="0" x2="540" y2="54" id="1/2 &quot;in. Tick no. 15"/><line x1="612" y1="0" x2="612" y2="54" id="1/2 &quot;in. Tick no. 17"/><line x1="684" y1="0" x2="684" y2="54" id="1/2 &quot;in. Tick no. 19"/><line x1="756" y1="0" x2="756" y2="54" id="1/2 &quot;in. Tick no. 21"/><line x1="828" y1="0" x2="828" y2="54" id="1/2 &quot;in. Tick no. 23"/></g><g id="1/4 &quot;in. Tick Group" fill="none" stroke="#000000" stroke-width="1" stroke-linecap="butt" stroke-linejoin="miter" stroke-miterlimit="10" stroke-dasharray="" stroke-dashoffset="0" font-family="sans-serif" font-weight="normal" font-size="12" text-anchor="start" mix-blend-mode="normal"><line x1="18" y1="0" x2="18" y2="27" id="1/4 &quot;in. Tick no. 1"/><line x1="54" y1="0" x2="54" y2="27" id="1/4 &quot;in. Tick no. 3"/><line x1="90" y1="0" x2="90" y2="27" id="1/4 &quot;in. Tick no. 5"/><line x1="126" y1="0" x2="126" y2="27" id="1/4 &quot;in. Tick no. 7"/><line x1="162" y1="0" x2="162" y2="27" id="1/4 &quot;in. Tick no. 9"/><line x1="198" y1="0" x2="198" y2="27" id="1/4 &quot;in. Tick no. 11"/><line x1="234" y1="0" x2="234" y2="27" id="1/4 &quot;in. Tick no. 13"/><line x1="270" y1="0" x2="270" y2="27" id="1/4 &quot;in. Tick no. 15"/><line x1="306" y1="0" x2="306" y2="27" id="1/4 &quot;in. Tick no. 17"/><line x1="342" y1="0" x2="342" y2="27" id="1/4 &quot;in. Tick no. 19"/><line x1="378" y1="0" x2="378" y2="27" id="1/4 &quot;in. Tick no. 21"/><line x1="414" y1="0" x2="414" y2="27" id="1/4 &quot;in. Tick no. 23"/><line x1="450" y1="0" x2="450" y2="27" id="1/4 &quot;in. Tick no. 25"/><line x1="486" y1="0" x2="486" y2="27" id="1/4 &quot;in. Tick no. 27"/><line x1="522" y1="0" x2="522" y2="27" id="1/4 &quot;in. Tick no. 29"/><line x1="558" y1="0" x2="558" y2="27" id="1/4 &quot;in. Tick no. 31"/><line x1="594" y1="0" x2="594" y2="27" id="1/4 &quot;in. Tick no. 33"/><line x1="630" y1="0" x2="630" y2="27" id="1/4 &quot;in. Tick no. 35"/><line x1="666" y1="0" x2="666" y2="27" id="1/4 &quot;in. Tick no. 37"/><line x1="702" y1="0" x2="702" y2="27" id="1/4 &quot;in. Tick no. 39"/><line x1="738" y1="0" x2="738" y2="27" id="1/4 &quot;in. Tick no. 41"/><line x1="774" y1="0" x2="774" y2="27" id="1/4 &quot;in. Tick no. 43"/><line x1="810" y1="0" x2="810" y2="27" id="1/4 &quot;in. Tick no. 45"/><line x1="846" y1="0" x2="846" y2="27" id="1/4 &quot;in. Tick no. 47"/></g><g id="1/8 &quot;in. Tick Group" fill="none" stroke="#000000" stroke-width="1" stroke-linecap="butt" stroke-linejoin="miter" stroke-miterlimit="10" stroke-dasharray="" stroke-dashoffset="0" font-family="sans-serif" font-weight="normal" font-size="12" text-anchor="start" mix-blend-mode="normal"><line x1="9" y1="0" x2="9" y2="13.5" id="1/8 &quot;in. Tick no. 1"/><line x1="27" y1="0" x2="27" y2="13.5" id="1/8 &quot;in. Tick no. 3"/><line x1="45" y1="0" x2="45" y2="13.5" id="1/8 &quot;in. Tick no. 5"/><line x1="63" y1="0" x2="63" y2="13.5" id="1/8 &quot;in. Tick no. 7"/><line x1="81" y1="0" x2="81" y2="13.5" id="1/8 &quot;in. Tick no. 9"/><line x1="99" y1="0" x2="99" y2="13.5" id="1/8 &quot;in. Tick no. 11"/><line x1="117" y1="0" x2="117" y2="13.5" id="1/8 &quot;in. Tick no. 13"/><line x1="135" y1="0" x2="135" y2="13.5" id="1/8 &quot;in. Tick no. 15"/><line x1="153" y1="0" x2="153" y2="13.5" id="1/8 &quot;in. Tick no. 17"/><line x1="171" y1="0" x2="171" y2="13.5" id="1/8 &quot;in. Tick no. 19"/><line x1="189" y1="0" x2="189" y2="13.5" id="1/8 &quot;in. Tick no. 21"/><line x1="207" y1="0" x2="207" y2="13.5" id="1/8 &quot;in. Tick no. 23"/><line x1="225" y1="0" x2="225" y2="13.5" id="1/8 &quot;in. Tick no. 25"/><line x1="243" y1="0" x2="243" y2="13.5" id="1/8 &quot;in. Tick no. 27"/><line x1="261" y1="0" x2="261" y2="13.5" id="1/8 &quot;in. Tick no. 29"/><line x1="279" y1="0" x2="279" y2="13.5" id="1/8 &quot;in. Tick no. 31"/><line x1="297" y1="0" x2="297" y2="13.5" id="1/8 &quot;in. Tick no. 33"/><line x1="315" y1="0" x2="315" y2="13.5" id="1/8 &quot;in. Tick no. 35"/><line x1="333" y1="0" x2="333" y2="13.5" id="1/8 &quot;in. Tick no. 37"/><line x1="351" y1="0" x2="351" y2="13.5" id="1/8 &quot;in. Tick no. 39"/><line x1="369" y1="0" x2="369" y2="13.5" id="1/8 &quot;in. Tick no. 41"/><line x1="387" y1="0" x2="387" y2="13.5" id="1/8 &quot;in. Tick no. 43"/><line x1="405" y1="0" x2="405" y2="13.5" id="1/8 &quot;in. Tick no. 45"/><line x1="423" y1="0" x2="423" y2="13.5" id="1/8 &quot;in. Tick no. 47"/><line x1="441" y1="0" x2="441" y2="13.5" id="1/8 &quot;in. Tick no. 49"/><line x1="459" y1="0" x2="459" y2="13.5" id="1/8 &quot;in. Tick no. 51"/><line x1="477" y1="0" x2="477" y2="13.5" id="1/8 &quot;in. Tick no. 53"/><line x1="495" y1="0" x2="495" y2="13.5" id="1/8 &quot;in. Tick no. 55"/><line x1="513" y1="0" x2="513" y2="13.5" id="1/8 &quot;in. Tick no. 57"/><line x1="531" y1="0" x2="531" y2="13.5" id="1/8 &quot;in. Tick no. 59"/><line x1="549" y1="0" x2="549" y2="13.5" id="1/8 &quot;in. Tick no. 61"/><line x1="567" y1="0" x2="567" y2="13.5" id="1/8 &quot;in. Tick no. 63"/><line x1="585" y1="0" x2="585" y2="13.5" id="1/8 &quot;in. Tick no. 65"/><line x1="603" y1="0" x2="603" y2="13.5" id="1/8 &quot;in. Tick no. 67"/><line x1="621" y1="0" x2="621" y2="13.5" id="1/8 &quot;in. Tick no. 69"/><line x1="639" y1="0" x2="639" y2="13.5" id="1/8 &quot;in. Tick no. 71"/><line x1="657" y1="0" x2="657" y2="13.5" id="1/8 &quot;in. Tick no. 73"/><line x1="675" y1="0" x2="675" y2="13.5" id="1/8 &quot;in. Tick no. 75"/><line x1="693" y1="0" x2="693" y2="13.5" id="1/8 &quot;in. Tick no. 77"/><line x1="711" y1="0" x2="711" y2="13.5" id="1/8 &quot;in. Tick no. 79"/><line x1="729" y1="0" x2="729" y2="13.5" id="1/8 &quot;in. Tick no. 81"/><line x1="747" y1="0" x2="747" y2="13.5" id="1/8 &quot;in. Tick no. 83"/><line x1="765" y1="0" x2="765" y2="13.5" id="1/8 &quot;in. Tick no. 85"/><line x1="783" y1="0" x2="783" y2="13.5" id="1/8 &quot;in. Tick no. 87"/><line x1="801" y1="0" x2="801" y2="13.5" id="1/8 &quot;in. Tick no. 89"/><line x1="819" y1="0" x2="819" y2="13.5" id="1/8 &quot;in. Tick no. 91"/><line x1="837" y1="0" x2="837" y2="13.5" id="1/8 &quot;in. Tick no. 93"/><line x1="855" y1="0" x2="855" y2="13.5" id="1/8 &quot;in. Tick no. 95"/></g></svg>